<?xml version="1.0" encoding="UTF-8" standalone="no"?><!DOCTYPE svg PUBLIC "-//W3C//DTD SVG 1.1//EN" "http://www.w3.org/Graphics/SVG/1.1/DTD/svg11.dtd"><svg width="100%" height="100%" viewBox="0 0 418 314" version="1.1" xmlns="http://www.w3.org/2000/svg" xmlns:xlink="http://www.w3.org/1999/xlink" xml:space="preserve" xmlns:serif="http://www.serif.com/" style="fill-rule:evenodd;clip-rule:evenodd;stroke-linecap:round;"><g id="A"><path id="C" d="M403.568,151.303c-2.171,-6.508 -6.075,-18.229 -17.363,-26.042c-13.542,-9.375 -31.508,-8.679 -34.721,-8.679c-6.596,0.263 -10.241,1.388 -17.362,0c-5.034,-1.042 -13.279,-2.604 -17.363,-8.679c-3.471,-5.208 -1.3,-9.375 0,-26.042c1.042,-13.021 1.475,-19.704 0,-26.041c-3.212,-13.717 -13.021,-22.221 -17.362,-26.042c-9.113,-7.988 -20.659,-13.542 -43.404,-17.363c-15.8,-2.604 -41.234,-5.208 -78.125,0c-18.663,2.605 -47.396,7.55 -69.446,14.93c-15.363,5.033 -32.467,12.154 -52.084,26.041c-0.175,0.088 -0.345,0.175 -0.433,0.263c-29.854,19.441 -46.867,53.816 -45.304,89.408c7.9,191.667 354.429,215.713 392.971,51.65c0.866,-5.208 6.946,-23.004 -0,-43.404l-0.004,-0Zm-180.555,-51.042c-13.143,0 -23.958,-10.815 -23.958,-23.958c0,-13.279 10.679,-23.958 23.958,-23.958l23.438,-0c13.143,-0 23.958,10.815 23.958,23.958c0,0.028 0,0.056 0,0.083c0,13.098 -10.777,23.875 -23.875,23.875c-0.027,0 -0.055,0 -0.083,0l-23.438,0Z" style="fill:#888;fill-rule:nonzero;"/><g><path id="D" d="M38.984,125.261c0,-14.425 11.613,-26.041 26.042,-26.041c14.429,-0 26.042,11.616 26.042,26.041c-0,14.425 -11.613,26.042 -26.042,26.042c-14.429,-0 -26.042,-11.617 -26.042,-26.042Z" style="fill:#fff;fill-rule:nonzero;"/><path id="E" d="M82.388,203.386c0,-14.425 11.617,-26.041 26.042,-26.041c14.425,-0 26.042,11.616 26.042,26.041c-0,14.425 -11.617,26.042 -26.042,26.042c-14.425,-0 -26.042,-11.617 -26.042,-26.042Z" style="fill:#fafafa;fill-rule:nonzero;"/><path id="E1" serif:id="E" d="M169.193,229.428c-0,-14.425 11.616,-26.042 26.041,-26.042c14.425,0 26.042,11.617 26.042,26.042c-0,14.425 -11.617,26.042 -26.042,26.042c-14.425,-0 -26.041,-11.617 -26.041,-26.042Z" style="fill:#ababab;fill-rule:nonzero;"/><path id="F" d="M256.001,220.749c-0,-14.425 11.617,-26.042 26.042,-26.042c14.425,0 26.041,11.617 26.041,26.042c0,14.425 -11.612,26.041 -26.041,26.041c-14.43,0 -26.042,-11.616 -26.042,-26.041Z" style="fill:#585858;fill-rule:nonzero;"/></g><g><path id="C1" serif:id="C" d="M403.568,151.303c-2.171,-6.508 -6.075,-18.229 -17.363,-26.042c-13.542,-9.375 -31.508,-8.679 -34.721,-8.679c-6.596,0.263 -10.241,1.388 -17.362,0c-5.034,-1.042 -13.279,-2.604 -17.363,-8.679c-3.471,-5.208 -1.3,-9.375 0,-26.042c1.042,-13.021 1.475,-19.704 0,-26.041c-3.212,-13.717 -13.021,-22.221 -17.362,-26.042c-9.113,-7.988 -20.659,-13.542 -43.404,-17.363c-15.8,-2.604 -41.234,-5.208 -78.125,0c-18.663,2.605 -47.396,7.55 -69.446,14.93c-15.363,5.033 -32.467,12.154 -52.084,26.041c-0.175,0.088 -0.345,0.175 -0.433,0.263c-29.854,19.441 -46.867,53.816 -45.304,89.408c7.9,191.667 354.429,215.713 392.971,51.65c0.866,-5.208 6.946,-23.004 -0,-43.404l-0.004,-0Zm-180.555,-51.042c-13.143,0 -23.958,-10.815 -23.958,-23.958c0,-13.279 10.679,-23.958 23.958,-23.958l23.438,-0c13.143,-0 23.958,10.815 23.958,23.958c0,0.028 0,0.056 0,0.083c0,13.098 -10.777,23.875 -23.875,23.875c-0.027,0 -0.055,0 -0.083,0l-23.438,0Z" style="fill:none;stroke:#000;stroke-width:17.36px;"/><path id="D1" serif:id="D" d="M38.984,125.261c0,-14.425 11.613,-26.041 26.042,-26.041c14.429,-0 26.042,11.616 26.042,26.041c-0,14.425 -11.613,26.042 -26.042,26.042c-14.429,-0 -26.042,-11.617 -26.042,-26.042Z" style="fill:none;stroke:#000;stroke-width:17.36px;"/></g><path id="E2" serif:id="E" d="M82.388,203.386c0,-14.425 11.617,-26.041 26.042,-26.041c14.425,-0 26.042,11.616 26.042,26.041c-0,14.425 -11.617,26.042 -26.042,26.042c-14.425,-0 -26.042,-11.617 -26.042,-26.042Z" style="fill:none;stroke:#000;stroke-width:17.36px;stroke-linejoin:round;"/><g><path id="E3" serif:id="E" d="M169.193,229.428c-0,-14.425 11.616,-26.042 26.041,-26.042c14.425,0 26.042,11.617 26.042,26.042c-0,14.425 -11.617,26.042 -26.042,26.042c-14.425,-0 -26.041,-11.617 -26.041,-26.042Z" style="fill:none;stroke:#000;stroke-width:17.36px;"/><path id="F1" serif:id="F" d="M256.001,220.749c-0,-14.425 11.617,-26.042 26.042,-26.042c14.425,0 26.041,11.617 26.041,26.042c0,14.425 -11.612,26.041 -26.041,26.041c-14.43,0 -26.042,-11.616 -26.042,-26.041Z" style="fill:none;stroke:#000;stroke-width:17.36px;"/></g></g></svg>